<svg xmlns="http://www.w3.org/2000/svg" xmlns:xlink="http://www.w3.org/1999/xlink" width="15" height="27" viewBox="0 0 15 27"><defs><path id="uvkca" d="M901.66 5930.005l-3.404-.006c-3.825 0-6.297 2.608-6.297 6.646v3.063h-3.424a.543.543 0 0 0-.535.551v4.439c0 .304.24.55.535.55h3.424v11.202c0 .304.24.55.535.55h4.466a.543.543 0 0 0 .536-.55v-11.201h4.002a.543.543 0 0 0 .536-.551l.001-4.439a.56.56 0 0 0-.156-.39.528.528 0 0 0-.38-.16h-4.003v-2.598c0-1.248.29-1.882 1.87-1.882h2.294a.543.543 0 0 0 .535-.551v-4.122c0-.304-.24-.55-.534-.55z"/></defs><g><g transform="translate(-888 -5930)"><use fill="#fff" xlink:href="#uvkca"/></g></g></svg>