<svg xmlns="http://www.w3.org/2000/svg" xmlns:xlink="http://www.w3.org/1999/xlink" width="23" height="25" viewBox="0 0 23 25"><defs><path id="rtxla" d="M1022.32 5937.263c0 .82-.65 1.486-1.452 1.486h-1.381c-.803 0-1.454-.666-1.454-1.486v-1.413c0-.82.65-1.485 1.454-1.485h1.38c.803 0 1.454.665 1.454 1.485v1.413zm-1.549 15.185h-14.53c-.804 0-1.607-.667-1.607-1.487v-7.43c0-.82.803-1.495 1.606-1.495h.822a.89.89 0 0 1 .161.015.62.62 0 0 1 .524.577.71.71 0 0 1-.005.15c-.005.035.076.072.072.106-.024.212.036.427.036.646 0 3.245 2.468 5.88 5.627 5.938l-.033.001c.024.002.045.005.072.005 3.21 0 5.806-2.662 5.807-5.943 0-.218-.021-.435-.045-.646-.004-.036-.003-.073-.007-.107a.73.73 0 0 1-.006-.15.62.62 0 0 1 .523-.577.887.887 0 0 1 .162-.015h.821c.803 0 1.55.675 1.55 1.496v7.429c0 .82-.747 1.487-1.55 1.487zm-10.172-8.917s.231-2.97 2.907-2.97c2.675 0 2.905 2.97 2.905 2.97s.085 2.972-2.905 2.972c-2.99 0-2.907-2.972-2.907-2.972zm-5.738-11.906c-1.605 0-2.906 1.33-2.906 2.97v17.62c0 1.641 1.301 2.972 2.906 2.972h17.233c1.605 0 2.906-1.33 2.906-2.971v-17.62c0-1.64-1.301-2.971-2.906-2.971z"/></defs><g><g transform="translate(-1002 -5931)"><use fill="#fff" xlink:href="#rtxla"/></g></g></svg>