<svg xmlns="http://www.w3.org/2000/svg" xmlns:xlink="http://www.w3.org/1999/xlink" width="189" height="33" viewBox="0 0 189 33"><defs><path id="lv46a" d="M228.196 70.582a1.87 1.87 0 0 1-.755 1.503l-19.843 14.57a1.761 1.761 0 0 1-1.877.139 1.861 1.861 0 0 1-.98-1.649l-.001-9.08h-6.584c-.59 0-1.07-.536-1.07-1.196 0-.66.48-1.196 1.07-1.196h6.583V71.7h-10.67c-.59 0-1.069-.536-1.069-1.196 0-.66.479-1.195 1.07-1.195h10.668v-1.912h-6.582c-.59 0-1.07-.535-1.07-1.196 0-.66.48-1.195 1.07-1.195h6.581l-.001-9.035c0-.697.377-1.334.98-1.649a1.756 1.756 0 0 1 1.876.14l19.843 14.6c.472.345.75.909.761 1.521zm-4.91-.03l-14.938-10.989.034 5.442h3.639c.59 0 1.07.535 1.07 1.195s-.48 1.196-1.07 1.196h-3.624l.012 1.912h7.115c.59 0 1.07.535 1.07 1.195s-.48 1.196-1.07 1.196h-7.1l.012 1.974h3.585c.59 0 1.07.535 1.07 1.196 0 .66-.48 1.195-1.07 1.195h-3.575v5.613zm26.194 2.218c.207.647.3 1.39.28 2.209-.044 2.176-.723 3.958-2.018 5.296-1.296 1.338-3.283 2.061-5.905 2.148a8.34 8.34 0 0 1-.392.009 7.59 7.59 0 0 1-2.34-.358c-.836-.27-1.57-.573-2.183-.898-.564-.288-1.028-.626-1.373-1.003a3.87 3.87 0 0 1-.758-1.16 2.898 2.898 0 0 1-.225-1.177c.012-.4.12-.746.32-1.03.33-.528.751-.837 1.244-.902.48-.064.924.046 1.334.317.317.216.646.447.99.692.333.238.69.456 1.059.65.366.193.758.353 1.165.474.72.216 1.61.28 2.439-.027.369-.135.7-.33.983-.582.279-.248.505-.563.674-.938.169-.373.254-.81.254-1.295 0-.453-.1-.852-.3-1.186a4.009 4.009 0 0 0-.769-.936 4.542 4.542 0 0 0-.996-.676 8.535 8.535 0 0 0-1.01-.432 25.336 25.336 0 0 1-2.481-1.052 8.758 8.758 0 0 1-2.048-1.372 6.094 6.094 0 0 1-1.41-1.913c-.35-.74-.528-1.622-.528-2.621 0-1.067.216-2.022.642-2.84a6.07 6.07 0 0 1 1.689-2.03 7.328 7.328 0 0 1 2.353-1.197 8.444 8.444 0 0 1 2.456-.366l.206.003a8.88 8.88 0 0 1 2.803.495c.86.309 1.586.7 2.158 1.166.59.478.998 1.009 1.214 1.579.23.61.186 1.197-.13 1.745-.174.28-.39.5-.644.661a2.424 2.424 0 0 1-.778.326 2.03 2.03 0 0 1-.815.017 1.439 1.439 0 0 1-.699-.322c-.183-.129-.42-.293-.687-.472a7.33 7.33 0 0 0-.825-.476 6.399 6.399 0 0 0-.924-.366c-.654-.203-1.37-.205-1.89.061a2.442 2.442 0 0 0-.71.54c-.195.22-.35.47-.46.744a2.13 2.13 0 0 0-.166.796c0 .422.122.778.37 1.087.27.336.609.637 1.007.896.408.265.843.493 1.293.678.472.192.896.375 1.274.547.943.43 1.772.865 2.465 1.295.706.438 1.298.918 1.761 1.424.474.52.82 1.116 1.03 1.772zm20.688-13.397c.363.397.547.852.547 1.355v13.796c0 1.32-.258 2.49-.766 3.476a7.59 7.59 0 0 1-2.013 2.476 8.41 8.41 0 0 1-2.841 1.473 11.206 11.206 0 0 1-6.463 0 8.743 8.743 0 0 1-2.855-1.454 7.676 7.676 0 0 1-2.06-2.458c-.53-.986-.8-2.169-.8-3.513V60.728c0-.456.182-.899.541-1.316.369-.428.967-.644 1.778-.644.808 0 1.404.204 1.772.605.363.397.547.852.547 1.355v11.816c0 .87.072 1.667.213 2.367.136.68.367 1.267.687 1.743a3.08 3.08 0 0 0 1.284 1.078c.55.258 1.27.389 2.14.389.848 0 1.553-.126 2.095-.373.53-.243.957-.596 1.267-1.049.317-.461.537-1.04.654-1.716.12-.704.182-1.524.182-2.44V60.729c0-.453.17-.893.503-1.308.348-.433.96-.652 1.816-.652.808 0 1.404.204 1.772.605zm20.23 18.738c.47.481.719 1.043.742 1.671.023.638-.205 1.207-.678 1.691a2.557 2.557 0 0 1-1.882.797c-.578 0-1.06-.193-1.43-.573l-7.766-8.373v6.98c0 .506-.197.964-.585 1.361-.388.397-.993.599-1.797.599-.815 0-1.405-.22-1.753-.652-.334-.415-.503-.855-.503-1.308v-18.81c0-.48.04-.86.12-1.164.088-.338.254-.606.492-.796.229-.182.533-.301.93-.363a9.342 9.342 0 0 1 1.37-.084h4.708c1.24 0 2.357.104 3.319.31.983.21 1.82.578 2.486 1.092.674.521 1.188 1.225 1.53 2.09.334.853.504 1.917.504 3.163 0 1.916-.438 3.41-1.303 4.442-.859 1.024-2.03 1.712-3.478 2.044l-.63.13a3.313 3.313 0 0 1-.084.016zm-8.032-9.73c1.084 0 1.909-.174 2.451-.515.498-.312.75-1.017.75-2.092 0-.502-.083-.917-.247-1.234a1.829 1.829 0 0 0-.658-.732 2.835 2.835 0 0 0-1.02-.375 7.458 7.458 0 0 0-1.276-.107h-2.982v5.055zm25.955-8.822c.364.322.56.863.585 1.606.023.758-.172 1.307-.58 1.635-.384.306-.916.462-1.583.462h-7.255v4.8h6.32c.668 0 1.213.172 1.619.514.368.375.543.909.543 1.604 0 .725-.18 1.257-.534 1.58-.35.32-.882.476-1.629.476h-6.319v8.42c0 .386-.196.757-.584 1.103-.38.34-.959.505-1.766.505-.812 0-1.382-.168-1.743-.512-.361-.344-.545-.713-.545-1.097V61.143c0-.756.207-1.299.616-1.613.388-.297.935-.443 1.672-.443h9.636c.672 0 1.192.16 1.547.472zm18.53 19.977c.287.932.193 1.632-.278 2.087-.439.425-1.026.64-1.744.64l-.121.003c-.658 0-1.169-.174-1.516-.517a3.444 3.444 0 0 1-.786-1.206l-1.423-3.645h-5.932l-1.3 3.48c-.202.553-.49 1.006-.856 1.345-.388.359-.946.54-1.662.54-.717 0-1.303-.209-1.741-.621-.477-.448-.55-1.177-.219-2.169l6.424-19.194c.118-.39.379-.746.77-1.051.394-.305.92-.46 1.565-.46.643 0 1.17.155 1.563.46.39.304.65.66.773 1.059zm-6.815-6.844l-2.004-6.613-2.006 6.613zm27.943 4.572c.192.393.264.805.216 1.223-.052.322-.254.705-.62 1.186-.35.46-.845.911-1.471 1.342-.62.427-1.384.8-2.268 1.106-.89.306-1.903.462-3.01.462-1.586 0-3.086-.275-4.455-.818a10.038 10.038 0 0 1-3.58-2.401c-1.002-1.047-1.789-2.334-2.341-3.824-.551-1.487-.82-3.194-.798-5.075.02-1.877.304-3.576.844-5.052.541-1.477 1.285-2.746 2.211-3.77a9.502 9.502 0 0 1 3.313-2.373c1.268-.545 2.655-.821 4.12-.821 1.042 0 2.015.138 2.892.412.873.273 1.64.617 2.283 1.021.647.41 1.164.85 1.536 1.31.392.485.607.904.657 1.284.048.323.027.611-.063.85a6.237 6.237 0 0 1-.183.442c-.09.155-.222.304-.412.474-.193.173-.424.31-.685.407a1.47 1.47 0 0 1-1.328-.048c-.358-.194-.764-.44-1.206-.732-.42-.277-.926-.549-1.503-.808-.553-.248-1.253-.374-2.081-.374-.92 0-1.745.217-2.456.645a5.837 5.837 0 0 0-1.811 1.718 8.085 8.085 0 0 0-1.112 2.48 11.35 11.35 0 0 0-.379 2.938c0 1.01.143 2.008.424 2.964.28.952.7 1.806 1.247 2.54a6.147 6.147 0 0 0 2.04 1.752c.767.413 1.668.622 2.677.622l.145-.001a6.644 6.644 0 0 0 1.459-.198 5.61 5.61 0 0 0 1.96-.943c.267-.2.536-.406.805-.618.614-.454 1.235-.536 1.827-.258.53.212.907.53 1.106.936zm17.47.95c.409.313.616.866.616 1.643s-.207 1.33-.616 1.644c-.388.298-.996.443-1.858.443h-9.605c-.68 0-1.228-.14-1.63-.418-.436-.302-.658-.853-.658-1.637V61.143c0-.756.207-1.299.616-1.613.388-.297.935-.443 1.672-.443h9.636c.671 0 1.192.16 1.547.472.364.322.56.863.585 1.606.022.759-.173 1.308-.58 1.635-.384.306-.916.462-1.583.462h-7.255v4.8h6.943c.74 0 1.29.172 1.637.514.35.345.526.885.526 1.604 0 .725-.18 1.257-.534 1.58-.35.32-.882.476-1.63.476h-6.942v5.534h7.255c.862 0 1.47.145 1.858.443zM382 61.11V80.72c0 .705-.392 1.545-2.256 1.545-1.865 0-2.257-.84-2.257-1.545V63.773h-1.236c-.63 0-.925-.29-1.063-.532-.176-.307-.258-.863-.258-1.747 0-.836.113-1.413.346-1.765.255-.383.646-.577 1.162-.577h3.119c2.019 0 2.443 1.065 2.443 1.96z"/></defs><g><g transform="translate(-193 -54)"><use fill="#fff" xlink:href="#lv46a"/></g></g></svg>