<svg xmlns="http://www.w3.org/2000/svg" xmlns:xlink="http://www.w3.org/1999/xlink" width="634" height="593" viewBox="0 0 634 593"><defs><path id="p3kba" d="M828 513.976c0 10.703-5.104 20.868-13.608 27.1L456.958 803.768A31.706 31.706 0 0 1 438.034 810c-5.103 0-10.207-1.204-14.884-3.715-10.845-5.797-17.65-17.16-17.65-29.726l-.033-163.736H286.879c-10.641 0-19.268-9.648-19.268-21.554 0-11.907 8.627-21.562 19.268-21.562h118.58l-.009-35.591H213.266c-10.64 0-19.266-9.655-19.266-21.562 0-11.906 8.625-21.554 19.266-21.554h192.176l-.006-34.469H286.879c-10.641 0-19.268-9.654-19.268-21.561s8.627-21.555 19.268-21.555h118.548l-.033-162.905c0-12.567 6.805-24.039 17.649-29.72 10.845-5.79 23.92-4.81 33.808 2.51l357.434 263.243c8.506 6.232 13.503 16.398 13.715 27.433zm-88.453-.55L470.46 315.31l.615 98.105h65.556c10.641 0 19.267 9.648 19.267 21.555s-8.626 21.561-19.267 21.561h-65.286L471.56 491h128.165c10.642 0 19.267 9.648 19.267 21.554 0 11.907-8.625 21.562-19.267 21.562H471.831l.225 35.591h64.575c10.641 0 19.267 9.655 19.267 21.562 0 11.906-8.626 21.554-19.267 21.554h-64.394v101.208z"/></defs><g><g transform="translate(-194 -217)"><use fill="#fff" xlink:href="#p3kba"/></g></g></svg>