<svg xmlns="http://www.w3.org/2000/svg" xmlns:xlink="http://www.w3.org/1999/xlink" width="582" height="668" viewBox="0 0 582 668"><defs><path id="8tx1a" d="M413 1135v-17h17v17zm9-1v-7h7v-1h-7v-7h-1v7h-7v1h7v7z"/><path id="8tx1b" d="M421 1134v-7h-7v-1h7v-7h1v7h7v1h-7v7z"/><path id="8tx1c" d="M391 1126v-17h17v17zm9-1v-7h7v-1h-7v-7h-1v7h-7v1h7v7z"/><path id="8tx1d" d="M399 1125v-7h-7v-1h7v-7h1v7h7v1h-7v7z"/><path id="8tx1e" d="M878.75 1026.43l4.697 3.732-576.196 663.409-4.698-3.733z"/><clipPath id="8tx1f"><use fill="#fff" xlink:href="#8tx1a"/></clipPath><clipPath id="8tx1g"><use fill="#fff" xlink:href="#8tx1b"/></clipPath><clipPath id="8tx1h"><use fill="#fff" xlink:href="#8tx1c"/></clipPath><clipPath id="8tx1i"><use fill="#fff" xlink:href="#8tx1d"/></clipPath></defs><g><g transform="translate(-302 -1026)"><use fill="#9172e6" xlink:href="#8tx1e"/></g><g transform="translate(-302 -1026)"><use fill="#9173e6" xlink:href="#8tx1b"/><use fill="#fff" fill-opacity="0" stroke="#9173e6" stroke-linecap="round" stroke-linejoin="round" stroke-miterlimit="50" stroke-width="2" clip-path="url(&quot;#8tx1f&quot;)" xlink:href="#8tx1b"/><use fill="#fff" fill-opacity="0" stroke="#5e42b0" stroke-miterlimit="50" stroke-width="6" clip-path="url(&quot;#8tx1g&quot;)" xlink:href="#8tx1b"/></g><g opacity=".3" transform="translate(-302 -1026)"><use fill="#9173e6" xlink:href="#8tx1d"/><use fill="#fff" fill-opacity="0" stroke="#9173e6" stroke-linecap="round" stroke-linejoin="round" stroke-miterlimit="50" stroke-width="2" clip-path="url(&quot;#8tx1h&quot;)" xlink:href="#8tx1d"/><use fill="#fff" fill-opacity="0" stroke="#5e42b0" stroke-miterlimit="50" stroke-width="6" clip-path="url(&quot;#8tx1i&quot;)" xlink:href="#8tx1d"/></g></g></svg>