<svg xmlns="http://www.w3.org/2000/svg" xmlns:xlink="http://www.w3.org/1999/xlink" width="748" height="687" viewBox="0 0 748 687"><defs><path id="j98ja" d="M1099 2032v-17h17v17zm9-1v-7h7v-1h-7v-7h-1v7h-7v1h7v7z"/><path id="j98jb" d="M1107 2031v-7h-7v-1h7v-7h1v7h7v1h-7v7z"/><path id="j98jc" d="M1577 2296v-17h17v17zm9-1v-7h7v-1h-7v-7h-1v7h-7v1h7v7z"/><path id="j98jd" d="M1585 2295v-7h-7v-1h7v-7h1v7h7v1h-7v7z"/><path id="j98je" d="M1121 2049v-17h17v17zm9-1v-7h7v-1h-7v-7h-1v7h-7v1h7v7z"/><path id="j98jf" d="M1129 2048v-7h-7v-1h7v-7h1v7h7v1h-7v7z"/><path id="j98jg" d="M1259.75 2323.43l4.697 3.732-273.196 316.408-4.698-3.731z"/><path id="j98jh" d="M1728.75 1957.43l4.697 3.732-269.196 314.408-4.698-3.732z"/><clipPath id="j98ji"><use fill="#fff" xlink:href="#j98ja"/></clipPath><clipPath id="j98jj"><use fill="#fff" xlink:href="#j98jb"/></clipPath><clipPath id="j98jk"><use fill="#fff" xlink:href="#j98jc"/></clipPath><clipPath id="j98jl"><use fill="#fff" xlink:href="#j98jd"/></clipPath><clipPath id="j98jm"><use fill="#fff" xlink:href="#j98je"/></clipPath><clipPath id="j98jn"><use fill="#fff" xlink:href="#j98jf"/></clipPath></defs><g><g transform="translate(-986 -1957)"><use fill="#9172e6" xlink:href="#j98jg"/></g><g transform="translate(-986 -1957)"><use fill="#9172e6" xlink:href="#j98jh"/></g><g transform="translate(-986 -1957)"><use fill="#9173e6" xlink:href="#j98jb"/><use fill="#fff" fill-opacity="0" stroke="#9173e6" stroke-linecap="round" stroke-linejoin="round" stroke-miterlimit="50" stroke-width="2" clip-path="url(&quot;#j98ji&quot;)" xlink:href="#j98jb"/><use fill="#fff" fill-opacity="0" stroke="#5e42b0" stroke-miterlimit="50" stroke-width="6" clip-path="url(&quot;#j98jj&quot;)" xlink:href="#j98jb"/></g><g transform="translate(-986 -1957)"><use fill="#9173e6" xlink:href="#j98jd"/><use fill="#fff" fill-opacity="0" stroke="#9173e6" stroke-linecap="round" stroke-linejoin="round" stroke-miterlimit="50" stroke-width="2" clip-path="url(&quot;#j98jk&quot;)" xlink:href="#j98jd"/><use fill="#fff" fill-opacity="0" stroke="#5e42b0" stroke-miterlimit="50" stroke-width="6" clip-path="url(&quot;#j98jl&quot;)" xlink:href="#j98jd"/></g><g opacity=".3" transform="translate(-986 -1957)"><use fill="#9173e6" xlink:href="#j98jf"/><use fill="#fff" fill-opacity="0" stroke="#9173e6" stroke-linecap="round" stroke-linejoin="round" stroke-miterlimit="50" stroke-width="2" clip-path="url(&quot;#j98jm&quot;)" xlink:href="#j98jf"/><use fill="#fff" fill-opacity="0" stroke="#5e42b0" stroke-miterlimit="50" stroke-width="6" clip-path="url(&quot;#j98jn&quot;)" xlink:href="#j98jf"/></g></g></svg>