<svg xmlns="http://www.w3.org/2000/svg" xmlns:xlink="http://www.w3.org/1999/xlink" width="27" height="22" viewBox="0 0 27 22"><defs><path id="ehoea" d="M970.255 5932.407a11.12 11.12 0 0 1-3.52 1.348 5.515 5.515 0 0 0-4.041-1.755c-3.06 0-5.54 2.488-5.54 5.554 0 .435.05.86.143 1.266-4.603-.232-8.684-2.444-11.416-5.805a5.53 5.53 0 0 0-.75 2.793c0 1.928.98 3.628 2.464 4.623a5.522 5.522 0 0 1-2.508-.698v.07a5.557 5.557 0 0 0 4.442 5.448 5.572 5.572 0 0 1-1.459.195 5.55 5.55 0 0 1-1.043-.101 5.55 5.55 0 0 0 5.173 3.859 11.095 11.095 0 0 1-6.878 2.377c-.448 0-.889-.027-1.322-.077a15.654 15.654 0 0 0 8.49 2.496c10.189 0 15.76-8.465 15.76-15.806l-.018-.72a11.163 11.163 0 0 0 2.768-2.871c-.994.441-2.06.741-3.18.875a5.582 5.582 0 0 0 2.435-3.071z"/></defs><g><g transform="translate(-944 -5932)"><use fill="#fff" xlink:href="#ehoea"/></g></g></svg>